# xmcd
#
# Track frame offsets:
#	150
#	13194
#	26620
#	39732
#	53048
#	66638
#	77527
#	89323
#	100804
#	114344
#	127369
#	141626
#	153887
#	166341
#	178035
#	191423
#	202971
#	214307
#	225299
#	238901
#	250226
#	264442
#	276232
#	288093
#	301259
#
# Disc length: 4174 seconds
#
# Revision: 1
# Processed by: cddbd v1.4b41PL2 Copyright (c) Steve Scherf et al.
# Submitted via: audiograbber 1.80
#
DISCID=67104c19
DTITLE=Louis Jordan With The Tympani Five - Man Alive- It's The Jumping Jive
DYEAR=1900
DGENRE=
TTITLE0=Ain't That Just Like A Woman
TTITLE1=Look Out
TTITLE2=It's So Easy
TTITLE3=How 'Bout That?
TTITLE4=Five Guys Named Moe
TTITLE5=Reconversation Blues
TTITLE6=A Chicken Ain't Nothin' But A Bird
TTITLE7=I Know You
TTITLE8=Your Socks Don't Match
TTITLE9=Let The Good Times Roll
TTITLE10=I Know What You're Puttin' Down
TTITLE11=Sam Jones Done Snagged His Britches
TTITLE12=Swingin' In The Coconut Trees
TTITLE13=Keep A-Knockin'
TTITLE14=Deacon Jones
TTITLE15=Doug, The Jitterbug
TTITLE16=At The Swing Cat's Ball
TTITLE17=That Chick's Too Young To Fry
TTITLE18=G.I. Jive
TTITLE19=Don't Worry 'Bout That Mule
TTITLE20=Ain't Nobody Here But Us Chickens
TTITLE21=Jack, You're Dead
TTITLE22=I Like 'Em Fat Like That
TTITLE23=All For The Love Of Lil
TTITLE24=Patootie Pie
EXTD=
EXTT0=
EXTT1=
EXTT2=
EXTT3=
EXTT4=
EXTT5=
EXTT6=
EXTT7=
EXTT8=
EXTT9=
EXTT10=
EXTT11=
EXTT12=
EXTT13=
EXTT14=
EXTT15=
EXTT16=
EXTT17=
EXTT18=
EXTT19=
EXTT20=
EXTT21=
EXTT22=
EXTT23=
EXTT24=
PLAYORDER=
